HIERARCHY
ROOT Hips
{
	OFFSET 0.000000 0.000000 0.000000
	CHANNELS 6 Xposition Yposition Zposition Zrotation Yrotation Xrotation 
	JOINT LHipJoint
	{
		OFFSET 0.000000 0.000000 0.000000
		CHANNELS 3 Zrotation Yrotation Xrotation
		JOINT LeftUpLeg
		{
			OFFSET 1.363060 -1.794630 0.839290
			CHANNELS 3 Zrotation Yrotation Xrotation
			JOINT LeftLeg
			{
				OFFSET 2.448110 -6.726130 0.000000
				CHANNELS 3 Zrotation Yrotation Xrotation
				JOINT LeftFoot
				{
					OFFSET 2.562200 -7.039590 0.000000
					CHANNELS 3 Zrotation Yrotation Xrotation
					JOINT LeftToeBase
					{
						OFFSET 0.157640 -0.433110 2.322550
						CHANNELS 3 Zrotation Yrotation Xrotation
						End Site
						{
							OFFSET 0.000000 0.000000 0.000000
						}
					}
				}
			}
		}
	}
	JOINT RHipJoint
	{
		OFFSET 0.000000 0.000000 0.000000
		CHANNELS 3 Zrotation Yrotation Xrotation
		JOINT RightUpLeg
		{
			OFFSET -1.305520 -1.794630 0.839290
			CHANNELS 3 Zrotation Yrotation Xrotation
			JOINT RightLeg
			{
				OFFSET -2.542530 -6.985550 0.000000
				CHANNELS 3 Zrotation Yrotation Xrotation
				JOINT RightFoot
				{
					OFFSET -2.568260 -7.056230 0.000000
					CHANNELS 3 Zrotation Yrotation Xrotation
					JOINT RightToeBase
					{
						OFFSET -0.164730 -0.452590 2.363150
						CHANNELS 3 Zrotation Yrotation Xrotation
						End Site
						{
							OFFSET 0.000000 0.000000 0.000000
						}
					}
				}
			}
		}
	}
	JOINT LowerBack
	{
		OFFSET 0.000000 0.000000 0.000000
		CHANNELS 3 Zrotation Yrotation Xrotation
		JOINT Spine
		{
			OFFSET 0.028270 2.035590 -0.193380
			CHANNELS 3 Zrotation Yrotation Xrotation
			JOINT Spine1
			{
				OFFSET 0.056720 2.048850 -0.042750
				CHANNELS 3 Zrotation Yrotation Xrotation
				JOINT Neck
				{
					OFFSET 0.000000 0.000000 0.000000
					CHANNELS 3 Zrotation Yrotation Xrotation
					JOINT Neck1
					{
						OFFSET -0.054170 1.746240 0.172020
						CHANNELS 3 Zrotation Yrotation Xrotation
						JOINT Head
						{
							OFFSET 0.104070 1.761360 -0.123970
							CHANNELS 3 Zrotation Yrotation Xrotation
							End Site
							{
								OFFSET 0.000000 0.000000 0.000000
							}
						}
					}
				}
				JOINT LeftShoulder
				{
					OFFSET 0.000000 0.000000 0.000000
					CHANNELS 3 Zrotation Yrotation Xrotation
					JOINT LeftArm
					{
						OFFSET 3.362410 1.200890 -0.311210
						CHANNELS 3 Zrotation Yrotation Xrotation
						JOINT LeftForeArm
						{
							OFFSET 4.983000 -0.000000 -0.000000
							CHANNELS 3 Zrotation Yrotation Xrotation
							JOINT LeftHand
							{
								OFFSET 3.483560 -0.000000 -0.000000
								CHANNELS 3 Zrotation Yrotation Xrotation
								JOINT LeftFingerBase
								{
									OFFSET 0.000000 0.000000 0.000000
									CHANNELS 3 Zrotation Yrotation Xrotation
									JOINT LeftHandIndex1
									{
										OFFSET 0.715260 -0.000000 -0.000000
										CHANNELS 3 Zrotation Yrotation Xrotation
										End Site
										{
											OFFSET 0.000000 0.000000 0.000000
										}
									}
								}
								JOINT LThumb
								{
									OFFSET 0.000000 0.000000 0.000000
									CHANNELS 3 Zrotation Yrotation Xrotation
									End Site
									{
										OFFSET 0.000000 0.000000 0.000000
									}
								}
							}
						}
					}
				}
				JOINT RightShoulder
				{
					OFFSET 0.000000 0.000000 0.000000
					CHANNELS 3 Zrotation Yrotation Xrotation
					JOINT RightArm
					{
						OFFSET -3.136600 1.374050 -0.404650
						CHANNELS 3 Zrotation Yrotation Xrotation
						JOINT RightForeArm
						{
							OFFSET -5.241900 -0.000000 -0.000000
							CHANNELS 3 Zrotation Yrotation Xrotation
							JOINT RightHand
							{
								OFFSET -3.444170 -0.000000 -0.000000
								CHANNELS 3 Zrotation Yrotation Xrotation
								JOINT RightFingerBase
								{
									OFFSET 0.000000 0.000000 0.000000
									CHANNELS 3 Zrotation Yrotation Xrotation
									JOINT RightHandIndex1
									{
										OFFSET -0.622530 -0.000000 -0.000000
										CHANNELS 3 Zrotation Yrotation Xrotation
										End Site
										{
											OFFSET 0.000000 0.000000 0.000000
										}
									}
								}
								JOINT RThumb
								{
									OFFSET 0.000000 0.000000 0.000000
									CHANNELS 3 Zrotation Yrotation Xrotation
									End Site
									{
										OFFSET 0.000000 0.000000 0.000000
									}
								}
							}
						}
					}
				}
			}
		}
	}
}
MOTION
Frames: 4
Frame Time: 0.008333
1.431781 17.542491 29.454797 -0.626193 9.222021 32.167819 2.213852 0.762406 0.744940 -24.484055 -5.814579 -7.458439 0.662944 8.880894 25.316685 -8.744099 28.666522 -9.294418 4.967100 13.346600 40.680300 -5.308797 -0.457042 0.672379 24.583902 20.694210 -51.746779 -1.218157 -14.741545 35.661481 -1.049558 -17.387838 -45.578313 -5.929800 -14.359900 44.699200 5.089685 -4.678560 -18.776683 3.022487 -8.221659 -8.138964 5.289480 -3.975329 -3.587150 -11.280455 -17.907041 -15.160404 8.374952 -22.688743 3.693419 2.285900 -10.995500 8.609800 -8.541011 -11.328982 2.213796 12.685442 -18.292656 -1.661633 34.154140 -43.370540 -16.409942 -0.214080 -1.929219 -2.557738 -20.768782 11.112933 -4.874700 -7.125000 0.000000 0.000000 -40.026700 39.627200 6.589700 10.085974 9.777811 6.463045 10.876461 -6.797818 -4.550355 -15.411695 20.325220 -3.657061 -0.592545 2.073928 -5.523750 10.807098 8.837461 1.318500 7.125000 0.000000 0.000000 27.003500 -23.089900 16.065100 
1.430936 17.549363 29.458708 -0.635331 9.093586 32.236242 2.265761 0.736855 0.742215 -24.588040 -6.353869 -7.492692 0.507927 8.831035 25.396054 -7.948790 26.742174 -12.265504 5.706400 14.137700 43.791700 -5.319423 -0.449104 0.674811 24.553796 20.761849 -51.720327 -1.187561 -14.695687 35.522260 -0.935884 -17.608861 -45.411584 -5.862900 -14.294100 44.428900 5.113206 -4.646211 -18.661074 3.009700 -8.166867 -8.169853 5.280582 -3.943022 -3.782306 -11.331115 -17.948999 -15.005345 8.431493 -22.733949 3.608725 2.327100 -11.026500 8.569700 -8.555290 -11.330052 2.222925 12.678901 -17.982087 -1.451315 34.235584 -43.386774 -16.501299 -0.209555 -1.943605 -2.756008 -20.841823 11.121424 -4.901800 -7.125000 0.000000 0.000000 -40.087700 39.638600 6.590500 10.095122 9.787810 6.464175 10.866312 -6.803295 -4.349752 -15.464697 20.380715 -3.680439 -0.616727 2.084832 -5.766032 10.734347 9.050334 1.350100 7.125000 0.000000 0.000000 26.924000 -22.913200 16.131400 
1.428927 17.555917 29.462303 -0.582521 8.871983 32.334595 2.284994 0.719232 0.736476 -24.712496 -6.589973 -7.688244 0.426066 8.793591 25.335541 -7.764828 26.489204 -13.916107 5.911000 14.341500 44.623300 -5.323829 -0.454327 0.687620 24.646568 20.615173 -51.873867 -1.199987 -14.704478 35.543690 -0.577673 -18.387528 -44.932584 -5.674500 -14.105400 43.661100 5.021876 -4.618143 -18.529503 2.980706 -8.098049 -8.212128 5.273323 -3.906685 -3.966763 -11.204159 -17.943920 -15.111735 8.363248 -22.754904 3.710202 2.251600 -11.023300 8.628900 -8.569406 -11.328147 2.223090 12.646502 -17.612815 -1.161465 34.313727 -43.363583 -16.561828 -0.169294 -1.984786 -2.927146 -20.449845 11.001673 -4.779300 -7.125000 0.000000 0.000000 -39.798200 39.614100 6.549200 10.104060 9.806453 6.462606 10.898680 -6.827796 -4.074152 -15.556801 20.457726 -3.710207 -0.645990 2.093096 -5.972832 10.584469 9.243958 1.369100 7.125000 0.000000 0.000000 26.802900 -22.754400 16.152300 
1.427870 17.560991 29.468223 -0.547791 8.711398 32.428005 2.299506 0.705597 0.742189 -24.768533 -6.807754 -7.885824 0.328746 8.746727 25.270154 -7.460247 26.023239 -15.858658 6.169400 14.590500 45.657900 -5.335209 -0.474486 0.707515 24.975854 20.238695 -52.088879 -1.225731 -14.715531 35.578329 0.041666 -19.700164 -44.079857 -5.331300 -13.747400 42.235000 4.954326 -4.612950 -18.389974 2.985738 -8.081964 -8.288702 5.370544 -3.882390 -4.271275 -11.197297 -17.868866 -15.091962 8.275803 -22.671252 3.856958 2.204700 -10.984000 8.680500 -8.588125 -11.339229 2.211434 12.501291 -17.308854 -0.702569 34.440136 -43.348358 -16.634481 -0.122731 -2.015292 -3.017405 -19.998825 11.074383 -4.708700 -7.125000 0.000000 0.000000 -39.563900 39.745200 6.328700 10.125039 9.819088 6.472726 10.767777 -7.012086 -3.146010 -15.757109 20.646649 -3.767506 -0.676804 2.089888 -6.637679 10.330896 9.108224 1.311400 7.125000 0.000000 0.000000 26.671900 -22.891100 15.956200 
